<svg width="512" height="512" viewBox="0 0 512 512" fill="none" xmlns="http://www.w3.org/2000/svg">
<path d="M74.632 103.232C75.144 102.635 75.8693 102.336 76.808 102.336C77.7467 102.336 79.112 102.763 80.904 103.616C82.7813 104.469 84.2747 105.664 85.384 107.2C86.5787 108.736 87.176 109.888 87.176 110.656C87.176 111.339 86.92 111.936 86.408 112.448L60.552 141.12L86.792 168.128C87.304 168.64 87.56 169.28 87.56 170.048C87.56 170.731 86.9627 171.883 85.768 173.504C84.5733 175.04 83.08 176.235 81.288 177.088C79.496 177.856 78.1307 178.24 77.192 178.24C76.3387 178.24 75.6133 177.941 75.016 177.344L45.448 144.576C44.2533 143.381 43.656 142.315 43.656 141.376C43.656 140.437 44.0827 139.541 44.936 138.688L74.632 103.232ZM461.905 138.688C462.758 139.541 463.185 140.437 463.185 141.376C463.185 142.315 462.588 143.381 461.393 144.576L431.825 177.344C431.228 177.941 430.46 178.24 429.521 178.24C428.668 178.24 427.302 177.856 425.425 177.088C423.633 176.235 422.14 175.04 420.945 173.504C419.836 171.883 419.281 170.731 419.281 170.048C419.281 169.28 419.537 168.64 420.049 168.128L446.289 141.12L420.433 112.448C419.921 111.936 419.665 111.339 419.665 110.656C419.665 109.888 420.22 108.736 421.329 107.2C422.524 105.664 424.017 104.512 425.809 103.744C427.686 102.891 429.052 102.464 429.905 102.464C430.844 102.464 431.612 102.72 432.209 103.232L461.905 138.688Z" fill="black"/>
<path d="M136.062 388.75H155.125C158 388.75 160.042 389.271 161.25 390.312C162.458 391.354 163.062 393.083 163.062 395.5C163.062 397.958 162.438 399.729 161.188 400.812C159.979 401.896 157.958 402.438 155.125 402.438H136.062V418.438C136.062 422.938 136.75 426.021 138.125 427.688C139.5 429.354 141.917 430.188 145.375 430.188C148.625 430.188 152.458 429.25 156.875 427.375C161.292 425.5 164.25 424.562 165.75 424.562C167.458 424.562 168.917 425.25 170.125 426.625C171.375 427.958 172 429.583 172 431.5C172 434.708 169.083 437.646 163.25 440.312C157.458 442.938 150.875 444.25 143.5 444.25C139.208 444.25 135.438 443.667 132.188 442.5C128.938 441.333 126.375 439.667 124.5 437.5C123.125 435.833 122.146 433.833 121.562 431.5C120.979 429.167 120.688 425.271 120.688 419.812V418.438V402.438H114.812C111.979 402.438 109.958 401.896 108.75 400.812C107.583 399.729 107 397.958 107 395.5C107 393.042 107.583 391.312 108.75 390.312C109.917 389.271 111.938 388.75 114.812 388.75H120.688V374.125C120.688 371.25 121.271 369.229 122.438 368.062C123.646 366.896 125.625 366.312 128.375 366.312C131.125 366.312 133.083 366.896 134.25 368.062C135.458 369.229 136.062 371.25 136.062 374.125V388.75ZM200.25 417.812C201.333 422.438 203.417 425.896 206.5 428.188C209.625 430.479 213.771 431.625 218.938 431.625C224.104 431.625 229.208 430.375 234.25 427.875C239.292 425.333 242.333 424.062 243.375 424.062C244.917 424.062 246.167 424.646 247.125 425.812C248.125 426.938 248.625 428.396 248.625 430.188C248.625 434.104 245.729 437.479 239.938 440.312C234.146 443.146 226.979 444.562 218.438 444.562C208.354 444.562 200.146 441.729 193.812 436.062C187.521 430.396 184.375 423.104 184.375 414.188C184.375 405.312 187.521 398.042 193.812 392.375C200.146 386.708 208.354 383.875 218.438 383.875C227.438 383.875 234.896 386.542 240.812 391.875C246.729 397.167 249.688 403.667 249.688 411.375C249.688 413.833 249.083 415.521 247.875 416.438C246.708 417.354 244.271 417.812 240.562 417.812H200.25ZM233.938 408.062C233.229 404.188 231.396 401.188 228.438 399.062C225.521 396.938 221.708 395.875 217 395.875C212.458 395.875 208.792 396.896 206 398.938C203.25 400.938 201.333 403.979 200.25 408.062H233.938ZM287.75 397.812L294.375 405.625L301.562 397.812C300.188 397.812 299.188 397.333 298.562 396.375C297.938 395.375 297.625 393.812 297.625 391.688C297.625 389.604 298.146 388.021 299.188 386.938C300.271 385.812 301.833 385.25 303.875 385.25H317.188C319.979 385.25 321.979 385.792 323.188 386.875C324.396 387.958 325 389.729 325 392.188C325 394.479 324.396 396.188 323.188 397.312C322.021 398.396 320.188 398.938 317.688 398.938H315.25L302.188 413.188L317.812 429.188H319.25C321.667 429.188 323.479 429.771 324.688 430.938C325.938 432.062 326.562 433.771 326.562 436.062C326.562 438.521 325.917 440.292 324.625 441.375C323.375 442.458 321.333 443 318.5 443H303.375C301.333 443 299.771 442.458 298.688 441.375C297.646 440.25 297.125 438.667 297.125 436.625C297.125 434.458 297.438 432.896 298.062 431.938C298.729 430.938 299.771 430.438 301.188 430.438H301.688L293.75 421.625L286.062 430.438H286.312C287.812 430.438 288.896 430.917 289.562 431.875C290.229 432.792 290.562 434.229 290.562 436.188C290.562 438.521 290.042 440.25 289 441.375C288 442.458 286.438 443 284.312 443H271C268.167 443 266.146 442.458 264.938 441.375C263.771 440.292 263.188 438.521 263.188 436.062C263.188 433.771 263.75 432.062 264.875 430.938C266.042 429.771 267.771 429.188 270.062 429.188H271.25L286.062 414.188L271.75 398.938H269.812C267.354 398.938 265.5 398.375 264.25 397.25C263 396.125 262.375 394.438 262.375 392.188C262.375 389.729 263 387.958 264.25 386.875C265.5 385.792 267.521 385.25 270.312 385.25H285.438C287.562 385.25 289.125 385.812 290.125 386.938C291.167 388.062 291.688 389.771 291.688 392.062C291.688 393.979 291.354 395.417 290.688 396.375C290.062 397.333 289.083 397.812 287.75 397.812ZM366.688 388.75H385.75C388.625 388.75 390.667 389.271 391.875 390.312C393.083 391.354 393.688 393.083 393.688 395.5C393.688 397.958 393.062 399.729 391.812 400.812C390.604 401.896 388.583 402.438 385.75 402.438H366.688V418.438C366.688 422.938 367.375 426.021 368.75 427.688C370.125 429.354 372.542 430.188 376 430.188C379.25 430.188 383.083 429.25 387.5 427.375C391.917 425.5 394.875 424.562 396.375 424.562C398.083 424.562 399.542 425.25 400.75 426.625C402 427.958 402.625 429.583 402.625 431.5C402.625 434.708 399.708 437.646 393.875 440.312C388.083 442.938 381.5 444.25 374.125 444.25C369.833 444.25 366.062 443.667 362.812 442.5C359.562 441.333 357 439.667 355.125 437.5C353.75 435.833 352.771 433.833 352.188 431.5C351.604 429.167 351.312 425.271 351.312 419.812V418.438V402.438H345.438C342.604 402.438 340.583 401.896 339.375 400.812C338.208 399.729 337.625 397.958 337.625 395.5C337.625 393.042 338.208 391.312 339.375 390.312C340.542 389.271 342.562 388.75 345.438 388.75H351.312V374.125C351.312 371.25 351.896 369.229 353.062 368.062C354.271 366.896 356.25 366.312 359 366.312C361.75 366.312 363.708 366.896 364.875 368.062C366.083 369.229 366.688 371.25 366.688 374.125V388.75Z" fill="black"/>
<path d="M275 212H218C215.239 212 213 214.239 213 217V257.5C213 260.261 210.761 262.5 208 262.5H110.32C104.982 262.5 103.359 269.745 108.187 272.022L244.887 336.503C246.226 337.135 247.777 337.14 249.12 336.518L388.399 272.037C393.262 269.786 391.657 262.5 386.299 262.5H285C282.239 262.5 280 260.261 280 257.5V217C280 214.239 277.761 212 275 212Z" fill="#ADADAD"/>
</svg>
