<svg width="512" height="512" viewBox="0 0 512 512" fill="none" xmlns="http://www.w3.org/2000/svg">
<path d="M334 233.929V148.071C334 143.617 339.386 141.386 342.536 144.536L385.464 187.464C387.417 189.417 387.417 192.583 385.464 194.536L342.536 237.464C339.386 240.614 334 238.383 334 233.929Z" stroke="white" stroke-width="10"/>
<circle cx="354" cy="191" r="86" stroke="white" stroke-width="10"/>
<path d="M314.5 318H200C197.239 318 195 320.239 195 323V363.5C195 366.261 192.761 368.5 190 368.5H124.32C118.982 368.5 117.359 375.745 122.187 378.022L258.887 442.503C260.226 443.135 261.777 443.14 263.12 442.518L402.399 378.037C407.262 375.786 405.657 368.5 400.299 368.5H324.5C321.739 368.5 319.5 366.261 319.5 363.5V323C319.5 320.239 317.261 318 314.5 318Z" fill="#F4F4F4"/>
<g clip-path="url(#clip0_4_2)">
<mask id="mask0_4_2" style="mask-type:luminance" maskUnits="userSpaceOnUse" x="-31" y="-5" width="335" height="335">
<path d="M-30.8 -4.79997H303.8V329.8H-30.8V-4.79997Z" fill="white"/>
</mask>
<g mask="url(#mask0_4_2)">
<path d="M256 162.5C256 96.502 202.498 43 136.5 43C70.5021 43 17 96.502 17 162.5C17 218.543 55.5818 265.567 107.632 278.481V199.017H82.9898V162.5H107.632V146.765C107.632 106.091 126.038 87.2384 165.971 87.2384C173.541 87.2384 186.604 88.7226 191.948 90.2073V123.311C189.128 123.014 184.229 122.865 178.143 122.865C158.548 122.865 150.977 130.288 150.977 149.585V162.5H190.01L183.305 199.017H150.977V281.125C210.147 273.978 256 223.597 256 162.5Z" fill="#0866FF"/>
<path d="M183.305 199.017L190.01 162.5H150.977V149.585C150.977 130.287 158.548 122.865 178.143 122.865C184.229 122.865 189.128 123.014 191.948 123.31V90.2074C186.604 88.7228 173.541 87.2381 165.97 87.2381C126.039 87.2381 107.631 106.091 107.631 146.765V162.5H82.9896V199.017H107.631V278.481C116.877 280.774 126.545 282 136.5 282C141.401 282 146.231 281.698 150.977 281.125V199.017H183.305Z" fill="white"/>
</g>
</g>
<defs>
<clipPath id="clip0_4_2">
<rect width="239" height="239" fill="white" transform="translate(17 43)"/>
</clipPath>
</defs>
</svg>
